<svg width="513" height="470" viewBox="0 0 513 470" fill="none" xmlns="http://www.w3.org/2000/svg">
<path fill-rule="evenodd" clip-rule="evenodd" d="M456.277 208.432C455.388 241.64 449.18 274.491 437.888 305.733L224.213 95.7707C239.709 84.9998 254.594 73.3766 268.8 60.9547C276.87 53.9284 287.286 50.191 297.983 50.4834C308.679 50.7758 318.875 55.0766 326.549 62.5333L373.632 108.528L481.621 0.538658L512.128 31.0453L404.501 138.672L443.307 176.432C447.569 180.576 450.922 185.56 453.155 191.069C455.388 196.578 456.451 202.49 456.277 208.432ZM132.843 143.472C151.792 137.463 169.998 129.325 187.115 119.216L419.136 347.184C392.295 394.828 354.722 435.564 309.397 466.16L303.893 470H277.483C227.503 470.098 178.405 456.832 135.275 431.579L152.661 425.179L185.728 408.688C223.012 389.964 254.924 362.068 278.464 327.621L289.515 311.387L254.272 287.365L243.2 303.6C223.775 332.058 197.446 355.121 166.677 370.629L136.811 385.563L93.5893 401.605C72.7945 383.586 54.8171 362.553 40.256 339.205L64.9173 335.131C107.489 324.421 146.464 302.626 177.877 271.963L148.011 241.456C122.487 266.472 90.8619 284.373 56.2773 293.381L19.84 299.333C6.70586 267.315 -0.0341827 233.035 -3.51669e-07 198.427V182.448L132.843 143.472Z" fill="black"/>
</svg>
